<svg xmlns="http://www.w3.org/2000/svg" xmlns:xlink="http://www.w3.org/1999/xlink" version="1.1" viewBox="0 0 3066 1320" style="background: #ffffff"><g id="v-3"  transform="matrix(1,0,0,1,0,0)"><g id="j_66"    transform="translate(20,1275)"><g id="v-1246"><text  id="v-1247" font-size="22px" y="0.8em" xml:space="preserve" font-weight="normal" text-anchor="start" fill="#aaaaaa" pointer-events="none" font-family="Open Sans" transform="matrix(1,0,0,1,0,0)"><tspan id="v-1248"  dy="0em" x="0">Monday, 22 August 2022, 09:56 Central European Summer Time</tspan></text></g></g><g id="j_65"    transform="translate(20,1229)"><g id="v-1242"><text  id="v-1243" font-size="36px" y="0.8em" xml:space="preserve" font-weight="normal" text-anchor="start" fill="#000000" pointer-events="none" font-family="Open Sans" transform="matrix(1,0,0,1,0,0)"><tspan id="v-1244"  dy="0em" x="0">[System Context] Integrated Development Environment (IDE) for Frege</tspan></text></g></g><g id="j_56"    transform="translate(207,465)" style="cursor: default !important"><g  id="v-1038" style="opacity: 1;"><rect  x="0" y="160" width="400" height="240" rx="70" id="v-1040" stroke="#073b6f" stroke-width="2" pointer-events="visiblePainted" fill="#08427b"></rect><circle  cx="200" cy="88.88888888888889" r="88.88888888888889" id="v-1039" stroke="#073b6f" stroke-width="2" pointer-events="visiblePainted" fill="#08427b"></circle><line  x1="80" y1="266.6666666666667" x2="80" y2="400" style="stroke-width:2px" id="v-1046" stroke="#073b6f"></line><line  x1="320" y1="266.6666666666667" x2="320" y2="400" style="stroke-width:2px" id="v-1047" stroke="#073b6f"></line><text  id="v-1041" font-size="34px" y="0.8em" xml:space="preserve" font-weight="bold" text-anchor="middle" pointer-events="visible" font-family="Open Sans" fill="#ffffff" transform="matrix(1,0,0,1,200,246.9)"><tspan id="v-1048"  dy="0em" x="0">Frege Developer</tspan></text><text  id="v-1042" font-size="19px" y="0.8em" xml:space="preserve" text-anchor="middle" font-family="Open Sans" fill="#ffffff" transform="matrix(1,0,0,1,200,289.4)"><tspan id="v-1049"  dy="0em" x="0">[Person]</tspan></text><text  id="v-1043" font-size="24px" y="0.8em" display="none" xml:space="preserve" text-anchor="middle" font-family="Open Sans" fill="#ffffff" transform="matrix(1,0,0,1,200,313.1)"><tspan id="v-1050"  dy="0em" x="0" style="fill-opacity: 0; stroke-opacity: 0;">-</tspan></text><text  id="v-1044" font-weight="bold" text-anchor="middle" font-family="Open Sans" fill="#ffffff" font-size="24" transform="matrix(1,0,0,1,200,371.2)"></text><image  id="v-1045"></image></g></g><g id="j_57"    transform="translate(2407,515)" style="cursor: default !important" ondblclick="structurizrElementDoubleClicked(event, undefined, undefined)"><g  id="v-1054" style="opacity: 1;"><rect  id="v-1055" rx="1" ry="1" stroke="#c7c7c7" stroke-width="2" pointer-events="visiblePainted" fill="#dddddd" width="450" height="300"></rect><text  id="v-1056" font-size="34" y="0.8em" xml:space="preserve" font-weight="bold" text-anchor="middle" pointer-events="visible" font-family="Open Sans" fill="#000000" transform="matrix(1,0,0,1,225,90)"><tspan id="v-1061"  dy="0em" x="0">Frege Compiler</tspan></text><text  id="v-1057" font-size="19" y="0.8em" xml:space="preserve" text-anchor="middle" font-family="Open Sans" fill="#000000" transform="matrix(1,0,0,1,225,132.5)"><tspan id="v-1062"  dy="0em" x="0">[Software System]</tspan></text><text  id="v-1058" font-size="24" y="0.8em" xml:space="preserve" text-anchor="middle" font-family="Open Sans" fill="#000000" transform="matrix(1,0,0,1,225,180)"><tspan id="v-1063"  dy="0em" x="0">Transpiles Frege code into Java code.</tspan></text><text  id="v-1059" font-weight="bold" text-anchor="middle" font-family="Open Sans" fill="#000000" font-size="24" transform="matrix(1,0,0,1,225,270)" y="0.8em" display="block" xml:space="preserve"><tspan id="v-1064"  dy="0em" x="0" style="fill-opacity: 0; stroke-opacity: 0;">-</tspan></text><image  id="v-1060"></image></g></g><g id="j_58"    transform="translate(907,211)" style="cursor: zoom-in !important" ondblclick="structurizrElementDoubleClicked(event, 'Language-Server-Container-Diagram', undefined)"><g  id="v-1070" style="opacity: 1;"><rect  id="v-1071" rx="1" ry="1" stroke="#c7c7c7" stroke-width="2" pointer-events="visiblePainted" fill="#dddddd" width="450" height="300"></rect><text  id="v-1072" font-size="34" y="0.8em" xml:space="preserve" font-weight="bold" text-anchor="middle" pointer-events="visible" font-family="Open Sans" fill="#000000" transform="matrix(1,0,0,1,225,2.5)"><tspan id="v-1077"  dy="0em" x="0">Integrated Development</tspan><tspan id="v-1078"  dy="1.2em" x="0">Environment (IDE) for</tspan><tspan id="v-1079"  dy="1.2em" x="0">Frege</tspan></text><text  id="v-1073" font-size="19" y="0.8em" xml:space="preserve" text-anchor="middle" font-family="Open Sans" fill="#000000" transform="matrix(1,0,0,1,225,130)"><tspan id="v-1080"  dy="0em" x="0">[Software System]</tspan></text><text  id="v-1074" font-size="24" y="0.8em" xml:space="preserve" text-anchor="middle" font-family="Open Sans" fill="#000000" transform="matrix(1,0,0,1,225,177.5)"><tspan id="v-1081"  dy="0em" x="0">Helps developers to develop Frege</tspan><tspan id="v-1082"  dy="1.2em" x="0">applications faster by providing extra</tspan><tspan id="v-1083"  dy="1.2em" x="0">language features besides basic text</tspan><tspan id="v-1084"  dy="1.2em" x="0">editing.</tspan></text><text  id="v-1075" font-weight="bold" text-anchor="middle" font-family="Open Sans" fill="#000000" font-size="24" transform="matrix(1,0,0,1,225,270)" y="0.8em" xml:space="preserve" display="block"><tspan id="v-1085"  dy="0em" x="0">+</tspan></text><image  id="v-1076"></image></g></g><g id="j_59"    transform="translate(1657,815)" style="cursor: zoom-in !important" ondblclick="structurizrElementDoubleClicked(event, 'buildTool', undefined)"><g  id="v-1091" style="opacity: 1;"><rect  id="v-1092" rx="1" ry="1" stroke="#c7c7c7" stroke-width="2" pointer-events="visiblePainted" fill="#dddddd" width="450" height="300"></rect><text  id="v-1093" font-size="34" y="0.8em" xml:space="preserve" font-weight="bold" text-anchor="middle" pointer-events="visible" font-family="Open Sans" fill="#000000" transform="matrix(1,0,0,1,225,75)"><tspan id="v-1098"  dy="0em" x="0">Gradle Build Tool</tspan></text><text  id="v-1094" font-size="19" y="0.8em" xml:space="preserve" text-anchor="middle" font-family="Open Sans" fill="#000000" transform="matrix(1,0,0,1,225,117.5)"><tspan id="v-1099"  dy="0em" x="0">[Software System]</tspan></text><text  id="v-1095" font-size="24" y="0.8em" xml:space="preserve" text-anchor="middle" font-family="Open Sans" fill="#000000" transform="matrix(1,0,0,1,225,165)"><tspan id="v-1100"  dy="0em" x="0">Automates the process of creating an</tspan><tspan id="v-1101"  dy="1.2em" x="0">exectuable from source code.</tspan></text><text  id="v-1096" font-weight="bold" text-anchor="middle" font-family="Open Sans" fill="#000000" font-size="24" transform="matrix(1,0,0,1,225,270)" y="0.8em" xml:space="preserve" display="block"><tspan id="v-1102"  dy="0em" x="0">+</tspan></text><image  id="v-1097"></image></g></g><g id="j_60"   ><path  stroke="#707070" id="v-1126" stroke-width="2" stroke-dasharray="30 30" fill="none" d="M 1357 404 2387 615" style="opacity: 1;"></path><path  fill="black" stroke="black" transform="translate(1357,404) scale(1,1) rotate(11.572021484375)"></path><path  fill="#707070" stroke="#707070" id="v-1128" d="M 20 0 L 0 10 L 20 20 z" transform="translate(2404.994103686206,628.7967493929422) scale(1,1) rotate(-168.42796325683594)" style="opacity: 1;"></path><path  id="v-1127" fill="none" d="M 1357 404 2387 615" style="cursor: default !important"></path><title ></title><g ><g  id="v-1110" label-idx="0" cursor="move" transform="translate(1872, 509.5)" style="opacity: 1;"><rect id="v-1112" fill="#ffffff" rx="3" ry="3" stroke="#ffffff" stroke-width="20px" pointer-events="none" width="134.90625" height="196.96875" transform="matrix(1,0,0,1,-67.5,-98.4)"></rect><text id="v-1111" font-size="32px" y="0.8em" xml:space="preserve" text-anchor="middle" pointer-events="none" fill="#707070" font-family="Open Sans" font-weight="normal" transform="matrix(1,0,0,1,0,-90)"><tspan id="v-1113"  dy="0em" x="0">extracts</tspan><tspan id="v-1114"  dy="1.2em" x="0">Frege</tspan><tspan id="v-1115"  dy="1.2em" x="0">language</tspan><tspan id="v-1116"  dy="1.2em" x="0">features</tspan><tspan id="v-1117"  dy="1.2em" x="0">from</tspan></text></g><g  id="v-1118" label-idx="1" cursor="move" transform="translate(1872, 618.3)" style="opacity: 1;"><rect id="v-1120" fill="#ffffff" rx="3" ry="3" pointer-events="none" width="0" height="0" transform="matrix(1,0,0,1,0,0)"></rect><text id="v-1119" font-size="27px" y="0.8em" display="none" xml:space="preserve" text-anchor="middle" pointer-events="none" fill="#707070" font-family="Open Sans" font-weight="normal" transform="matrix(1,0,0,1,0,0)"><tspan id="v-1121"  dy="0em" x="0" style="fill-opacity: 0; stroke-opacity: 0;">-</tspan></text></g><g  id="v-1122" label-idx="2" cursor="move" transform="translate(1872, 650.3)" style="opacity: 1;"><rect id="v-1124" fill="#ffffff" rx="3" ry="3" pointer-events="none"  display="none" width="0" height="0" transform="matrix(1,0,0,1,0,0)"></rect><text id="v-1123" font-size="27px" y="0.8em" display="none" xml:space="preserve" text-anchor="middle" pointer-events="none" fill="#707070" font-family="Open Sans" font-weight="normal"  transform="matrix(1,0,0,1,0,0)"><tspan id="v-1125"  dy="0em" x="0" style="fill-opacity: 0; stroke-opacity: 0;">-</tspan></text></g></g><g  display="none"></g><g  id="v-1130" display="none"><g  id="v-1107"><path  end="source" d="M 26 0 L 0 13 L 26 26 z"></path></g><g  id="v-1108"><path  end="target" d="M 26 0 L 0 13 L 26 26 z"></path></g></g><g  id="v-1129" display="none"><g  id="v-1106" transform="translate(1396.186279296875, 412.0274658203125) "><g  event="remove"><circle r="11"></circle><path transform="scale(.8) translate(-16, -16)" d="M24.778,21.419 19.276,15.917 24.777,10.415 21.949,7.585 16.447,13.087 10.945,7.585 8.117,10.415 13.618,15.917 8.116,21.419 10.946,24.248 16.447,18.746 21.948,24.248z"></path><title>Remove link.</title></g><g  event="link:options"><circle r="11" transform="translate(25)"></circle><path fill="white" transform="scale(.55) translate(29, -16)" d="M31.229,17.736c0.064-0.571,0.104-1.148,0.104-1.736s-0.04-1.166-0.104-1.737l-4.377-1.557c-0.218-0.716-0.504-1.401-0.851-2.05l1.993-4.192c-0.725-0.91-1.549-1.734-2.458-2.459l-4.193,1.994c-0.647-0.347-1.334-0.632-2.049-0.849l-1.558-4.378C17.165,0.708,16.588,0.667,16,0.667s-1.166,0.041-1.737,0.105L12.707,5.15c-0.716,0.217-1.401,0.502-2.05,0.849L6.464,4.005C5.554,4.73,4.73,5.554,4.005,6.464l1.994,4.192c-0.347,0.648-0.632,1.334-0.849,2.05l-4.378,1.557C0.708,14.834,0.667,15.412,0.667,16s0.041,1.165,0.105,1.736l4.378,1.558c0.217,0.715,0.502,1.401,0.849,2.049l-1.994,4.193c0.725,0.909,1.549,1.733,2.459,2.458l4.192-1.993c0.648,0.347,1.334,0.633,2.05,0.851l1.557,4.377c0.571,0.064,1.148,0.104,1.737,0.104c0.588,0,1.165-0.04,1.736-0.104l1.558-4.377c0.715-0.218,1.399-0.504,2.049-0.851l4.193,1.993c0.909-0.725,1.733-1.549,2.458-2.458l-1.993-4.193c0.347-0.647,0.633-1.334,0.851-2.049L31.229,17.736zM16,20.871c-2.69,0-4.872-2.182-4.872-4.871c0-2.69,2.182-4.872,4.872-4.872c2.689,0,4.871,2.182,4.871,4.872C20.871,18.689,18.689,20.871,16,20.871z"></path><title>Link options.</title></g></g></g></g><g id="j_61"   ><path  stroke="#707070" id="v-1156" stroke-width="2" stroke-dasharray="30 30" fill="none" d="M 2107 875 2388 762" style="opacity: 1;"></path><path  fill="black" stroke="black" transform="translate(2107,875) scale(1,1) rotate(-21.801408767700195)"></path><path  fill="#707070" stroke="#707070" id="v-1158" d="M 20 0 L 0 10 L 20 20 z" transform="translate(2410.714005448318,764.2847889637276) scale(1,1) rotate(-201.80140686035156)" style="opacity: 1;"></path><path  id="v-1157" fill="none" d="M 2107 875 2388 762" style="cursor: default !important"></path><title ></title><g ><g  id="v-1138" label-idx="0" cursor="move" transform="translate(2247.5, 818.5)" style="opacity: 1;"><rect id="v-1140" fill="#ffffff" rx="3" ry="3" stroke="#ffffff" stroke-width="20px" pointer-events="none" width="198.375" height="273.765625" transform="matrix(1,0,0,1,-99.2,-136.8)"></rect><text id="v-1139" font-size="32px" y="0.8em" xml:space="preserve" text-anchor="middle" pointer-events="none" fill="#707070" font-family="Open Sans" font-weight="normal" transform="matrix(1,0,0,1,0,-128.4)"><tspan id="v-1141"  dy="0em" x="0">creates an</tspan><tspan id="v-1142"  dy="1.2em" x="0">executable</tspan><tspan id="v-1143"  dy="1.2em" x="0">Frege</tspan><tspan id="v-1144"  dy="1.2em" x="0">application</tspan><tspan id="v-1145"  dy="1.2em" x="0">for the Java</tspan><tspan id="v-1146"  dy="1.2em" x="0">Virtual</tspan><tspan id="v-1147"  dy="1.2em" x="0">Machine with</tspan></text></g><g  id="v-1148" label-idx="1" cursor="move" transform="translate(2247.5, 959.3)" style="opacity: 1;"><rect id="v-1150" fill="#ffffff" rx="3" ry="3" pointer-events="none" width="0" height="0" transform="matrix(1,0,0,1,0,0)"></rect><text id="v-1149" font-size="27px" y="0.8em" display="none" xml:space="preserve" text-anchor="middle" pointer-events="none" fill="#707070" font-family="Open Sans" font-weight="normal" transform="matrix(1,0,0,1,0,0)"><tspan id="v-1151"  dy="0em" x="0" style="fill-opacity: 0; stroke-opacity: 0;">-</tspan></text></g><g  id="v-1152" label-idx="2" cursor="move" transform="translate(2247.5, 991.3)" style="opacity: 1;"><rect id="v-1154" fill="#ffffff" rx="3" ry="3" pointer-events="none"  display="none" width="0" height="0" transform="matrix(1,0,0,1,0,0)"></rect><text id="v-1153" font-size="27px" y="0.8em" display="none" xml:space="preserve" text-anchor="middle" pointer-events="none" fill="#707070" font-family="Open Sans" font-weight="normal"  transform="matrix(1,0,0,1,0,0)"><tspan id="v-1155"  dy="0em" x="0" style="fill-opacity: 0; stroke-opacity: 0;">-</tspan></text></g></g><g  display="none"></g><g  id="v-1160" display="none"><g  id="v-1135"><path  end="source" d="M 26 0 L 0 13 L 26 26 z"></path></g><g  id="v-1136"><path  end="target" d="M 26 0 L 0 13 L 26 26 z"></path></g></g><g  id="v-1159" display="none"><g  id="v-1134" transform="translate(2144.111572265625, 860.0760498046875) "><g  event="remove"><circle r="11"></circle><path transform="scale(.8) translate(-16, -16)" d="M24.778,21.419 19.276,15.917 24.777,10.415 21.949,7.585 16.447,13.087 10.945,7.585 8.117,10.415 13.618,15.917 8.116,21.419 10.946,24.248 16.447,18.746 21.948,24.248z"></path><title>Remove link.</title></g><g  event="link:options"><circle r="11" transform="translate(25)"></circle><path fill="white" transform="scale(.55) translate(29, -16)" d="M31.229,17.736c0.064-0.571,0.104-1.148,0.104-1.736s-0.04-1.166-0.104-1.737l-4.377-1.557c-0.218-0.716-0.504-1.401-0.851-2.05l1.993-4.192c-0.725-0.91-1.549-1.734-2.458-2.459l-4.193,1.994c-0.647-0.347-1.334-0.632-2.049-0.849l-1.558-4.378C17.165,0.708,16.588,0.667,16,0.667s-1.166,0.041-1.737,0.105L12.707,5.15c-0.716,0.217-1.401,0.502-2.05,0.849L6.464,4.005C5.554,4.73,4.73,5.554,4.005,6.464l1.994,4.192c-0.347,0.648-0.632,1.334-0.849,2.05l-4.378,1.557C0.708,14.834,0.667,15.412,0.667,16s0.041,1.165,0.105,1.736l4.378,1.558c0.217,0.715,0.502,1.401,0.849,2.049l-1.994,4.193c0.725,0.909,1.549,1.733,2.459,2.458l4.192-1.993c0.648,0.347,1.334,0.633,2.05,0.851l1.557,4.377c0.571,0.064,1.148,0.104,1.737,0.104c0.588,0,1.165-0.04,1.736-0.104l1.558-4.377c0.715-0.218,1.399-0.504,2.049-0.851l4.193,1.993c0.909-0.725,1.733-1.549,2.458-2.458l-1.993-4.193c0.347-0.647,0.633-1.334,0.851-2.049L31.229,17.736zM16,20.871c-2.69,0-4.872-2.182-4.872-4.871c0-2.69,2.182-4.872,4.872-4.872c2.689,0,4.871,2.182,4.871,4.872C20.871,18.689,18.689,20.871,16,20.871z"></path><title>Link options.</title></g></g></g></g><g id="j_62"   ><path  stroke="#707070" id="v-1184" stroke-width="2" stroke-dasharray="30 30" fill="none" d="M 1321 511 1681 802" style="opacity: 1;"></path><path  fill="black" stroke="black" transform="translate(1321,511) scale(1,1) rotate(38.9559020996094)"></path><path  fill="#707070" stroke="#707070" id="v-1186" d="M 20 0 L 0 10 L 20 20 z" transform="translate(1690.7128350662629,822.7762901693918) scale(1,1) rotate(-141.04409790039062)" style="opacity: 1;"></path><path  id="v-1185" fill="none" d="M 1321 511 1681 802" style="cursor: default !important"></path><title ></title><g ><g  id="v-1168" label-idx="0" cursor="move" transform="translate(1501, 656.5)" style="opacity: 1;"><rect id="v-1170" fill="#ffffff" rx="3" ry="3" stroke="#ffffff" stroke-width="20px" pointer-events="none" width="198.25" height="196.96875" transform="matrix(1,0,0,1,-99.1,-98.4)"></rect><text id="v-1169" font-size="32px" y="0.8em" xml:space="preserve" text-anchor="middle" pointer-events="none" fill="#707070" font-family="Open Sans" font-weight="normal" transform="matrix(1,0,0,1,0,-90)"><tspan id="v-1171"  dy="0em" x="0">extracts</tspan><tspan id="v-1172"  dy="1.2em" x="0">specific</tspan><tspan id="v-1173"  dy="1.2em" x="0">Frege</tspan><tspan id="v-1174"  dy="1.2em" x="0">application</tspan><tspan id="v-1175"  dy="1.2em" x="0">configuration</tspan></text></g><g  id="v-1176" label-idx="1" cursor="move" transform="translate(1501, 765.3)" style="opacity: 1;"><rect id="v-1178" fill="#ffffff" rx="3" ry="3" pointer-events="none" width="0" height="0" transform="matrix(1,0,0,1,0,0)"></rect><text id="v-1177" font-size="27px" y="0.8em" display="none" xml:space="preserve" text-anchor="middle" pointer-events="none" fill="#707070" font-family="Open Sans" font-weight="normal" transform="matrix(1,0,0,1,0,0)"><tspan id="v-1179"  dy="0em" x="0" style="fill-opacity: 0; stroke-opacity: 0;">-</tspan></text></g><g  id="v-1180" label-idx="2" cursor="move" transform="translate(1501, 797.3)" style="opacity: 1;"><rect id="v-1182" fill="#ffffff" rx="3" ry="3" pointer-events="none"  display="none" width="0" height="0" transform="matrix(1,0,0,1,0,0)"></rect><text id="v-1181" font-size="27px" y="0.8em" display="none" xml:space="preserve" text-anchor="middle" pointer-events="none" fill="#707070" font-family="Open Sans" font-weight="normal"  transform="matrix(1,0,0,1,0,0)"><tspan id="v-1183"  dy="0em" x="0" style="fill-opacity: 0; stroke-opacity: 0;">-</tspan></text></g></g><g  display="none"></g><g  id="v-1188" display="none"><g  id="v-1165"><path  end="source" d="M 26 0 L 0 13 L 26 26 z"></path></g><g  id="v-1166"><path  end="target" d="M 26 0 L 0 13 L 26 26 z"></path></g></g><g  id="v-1187" display="none"><g  id="v-1164" transform="translate(1352.10791015625, 536.1455078125) "><g  event="remove"><circle r="11"></circle><path transform="scale(.8) translate(-16, -16)" d="M24.778,21.419 19.276,15.917 24.777,10.415 21.949,7.585 16.447,13.087 10.945,7.585 8.117,10.415 13.618,15.917 8.116,21.419 10.946,24.248 16.447,18.746 21.948,24.248z"></path><title>Remove link.</title></g><g  event="link:options"><circle r="11" transform="translate(25)"></circle><path fill="white" transform="scale(.55) translate(29, -16)" d="M31.229,17.736c0.064-0.571,0.104-1.148,0.104-1.736s-0.04-1.166-0.104-1.737l-4.377-1.557c-0.218-0.716-0.504-1.401-0.851-2.05l1.993-4.192c-0.725-0.91-1.549-1.734-2.458-2.459l-4.193,1.994c-0.647-0.347-1.334-0.632-2.049-0.849l-1.558-4.378C17.165,0.708,16.588,0.667,16,0.667s-1.166,0.041-1.737,0.105L12.707,5.15c-0.716,0.217-1.401,0.502-2.05,0.849L6.464,4.005C5.554,4.73,4.73,5.554,4.005,6.464l1.994,4.192c-0.347,0.648-0.632,1.334-0.849,2.05l-4.378,1.557C0.708,14.834,0.667,15.412,0.667,16s0.041,1.165,0.105,1.736l4.378,1.558c0.217,0.715,0.502,1.401,0.849,2.049l-1.994,4.193c0.725,0.909,1.549,1.733,2.459,2.458l4.192-1.993c0.648,0.347,1.334,0.633,2.05,0.851l1.557,4.377c0.571,0.064,1.148,0.104,1.737,0.104c0.588,0,1.165-0.04,1.736-0.104l1.558-4.377c0.715-0.218,1.399-0.504,2.049-0.851l4.193,1.993c0.909-0.725,1.733-1.549,2.458-2.458l-1.993-4.193c0.347-0.647,0.633-1.334,0.851-2.049L31.229,17.736zM16,20.871c-2.69,0-4.872-2.182-4.872-4.871c0-2.69,2.182-4.872,4.872-4.872c2.689,0,4.871,2.182,4.871,4.872C20.871,18.689,18.689,20.871,16,20.871z"></path><title>Link options.</title></g></g></g></g><g id="j_63"   ><path  stroke="#707070" id="v-1211" stroke-width="2" stroke-dasharray="30 30" fill="none" d="M 607 706 1637 915" style="opacity: 1;"></path><path  fill="black" stroke="black" transform="translate(607,706) scale(1,1) rotate(11.46725463867186)"></path><path  fill="#707070" stroke="#707070" id="v-1213" d="M 20 0 L 0 10 L 20 20 z" transform="translate(1655.0118912147416,928.8003653260308) scale(1,1) rotate(-168.53274536132812)" style="opacity: 1;"></path><path  id="v-1212" fill="none" d="M 607 706 1637 915" style="cursor: default !important"></path><title ></title><g ><g  id="v-1196" label-idx="0" cursor="move" transform="translate(1122, 810.5)" style="opacity: 1;"><rect id="v-1198" fill="#ffffff" rx="3" ry="3" stroke="#ffffff" stroke-width="20px" pointer-events="none" width="163.71875" height="158.578125" transform="matrix(1,0,0,1,-81.9,-79.3)"></rect><text id="v-1197" font-size="32px" y="0.8em" xml:space="preserve" text-anchor="middle" pointer-events="none" fill="#707070" font-family="Open Sans" font-weight="normal" transform="matrix(1,0,0,1,0,-70.9)"><tspan id="v-1199"  dy="0em" x="0">configures</tspan><tspan id="v-1200"  dy="1.2em" x="0">and builds</tspan><tspan id="v-1201"  dy="1.2em" x="0">application</tspan><tspan id="v-1202"  dy="1.2em" x="0">with</tspan></text></g><g  id="v-1203" label-idx="1" cursor="move" transform="translate(1122, 903.3)" style="opacity: 1;"><rect id="v-1205" fill="#ffffff" rx="3" ry="3" pointer-events="none" width="0" height="0" transform="matrix(1,0,0,1,0,0)"></rect><text id="v-1204" font-size="27px" y="0.8em" display="none" xml:space="preserve" text-anchor="middle" pointer-events="none" fill="#707070" font-family="Open Sans" font-weight="normal" transform="matrix(1,0,0,1,0,0)"><tspan id="v-1206"  dy="0em" x="0" style="fill-opacity: 0; stroke-opacity: 0;">-</tspan></text></g><g  id="v-1207" label-idx="2" cursor="move" transform="translate(1122, 935.3)" style="opacity: 1;"><rect id="v-1209" fill="#ffffff" rx="3" ry="3" pointer-events="none"  display="none" width="0" height="0" transform="matrix(1,0,0,1,0,0)"></rect><text id="v-1208" font-size="27px" y="0.8em" display="none" xml:space="preserve" text-anchor="middle" pointer-events="none" fill="#707070" font-family="Open Sans" font-weight="normal"  transform="matrix(1,0,0,1,0,0)"><tspan id="v-1210"  dy="0em" x="0" style="fill-opacity: 0; stroke-opacity: 0;">-</tspan></text></g></g><g  display="none"></g><g  id="v-1215" display="none"><g  id="v-1193"><path  end="source" d="M 26 0 L 0 13 L 26 26 z"></path></g><g  id="v-1194"><path  end="target" d="M 26 0 L 0 13 L 26 26 z"></path></g></g><g  id="v-1214" display="none"><g  id="v-1192" transform="translate(646.2011108398438, 713.9544067382812) "><g  event="remove"><circle r="11"></circle><path transform="scale(.8) translate(-16, -16)" d="M24.778,21.419 19.276,15.917 24.777,10.415 21.949,7.585 16.447,13.087 10.945,7.585 8.117,10.415 13.618,15.917 8.116,21.419 10.946,24.248 16.447,18.746 21.948,24.248z"></path><title>Remove link.</title></g><g  event="link:options"><circle r="11" transform="translate(25)"></circle><path fill="white" transform="scale(.55) translate(29, -16)" d="M31.229,17.736c0.064-0.571,0.104-1.148,0.104-1.736s-0.04-1.166-0.104-1.737l-4.377-1.557c-0.218-0.716-0.504-1.401-0.851-2.05l1.993-4.192c-0.725-0.91-1.549-1.734-2.458-2.459l-4.193,1.994c-0.647-0.347-1.334-0.632-2.049-0.849l-1.558-4.378C17.165,0.708,16.588,0.667,16,0.667s-1.166,0.041-1.737,0.105L12.707,5.15c-0.716,0.217-1.401,0.502-2.05,0.849L6.464,4.005C5.554,4.73,4.73,5.554,4.005,6.464l1.994,4.192c-0.347,0.648-0.632,1.334-0.849,2.05l-4.378,1.557C0.708,14.834,0.667,15.412,0.667,16s0.041,1.165,0.105,1.736l4.378,1.558c0.217,0.715,0.502,1.401,0.849,2.049l-1.994,4.193c0.725,0.909,1.549,1.733,2.459,2.458l4.192-1.993c0.648,0.347,1.334,0.633,2.05,0.851l1.557,4.377c0.571,0.064,1.148,0.104,1.737,0.104c0.588,0,1.165-0.04,1.736-0.104l1.558-4.377c0.715-0.218,1.399-0.504,2.049-0.851l4.193,1.993c0.909-0.725,1.733-1.549,2.458-2.458l-1.993-4.193c0.347-0.647,0.633-1.334,0.851-2.049L31.229,17.736zM16,20.871c-2.69,0-4.872-2.182-4.872-4.871c0-2.69,2.182-4.872,4.872-4.872c2.689,0,4.871,2.182,4.871,4.872C20.871,18.689,18.689,20.871,16,20.871z"></path><title>Link options.</title></g></g></g></g><g id="j_64"   ><path  stroke="#707070" id="v-1236" stroke-width="2" stroke-dasharray="30 30" fill="none" d="M 607 580 889 461" style="opacity: 1;"></path><path  fill="black" stroke="black" transform="translate(607,580) scale(1,1) rotate(-22.944561004638672)"></path><path  fill="#707070" stroke="#707070" id="v-1238" d="M 20 0 L 0 10 L 20 20 z" transform="translate(910.8984267126211,462.20882830505553) scale(1,1) rotate(-202.94456481933594)" style="opacity: 1;"></path><path  id="v-1237" fill="none" d="M 607 580 889 461" style="cursor: default !important"></path><title ></title><g ><g  id="v-1223" label-idx="0" cursor="move" transform="translate(748, 520.5)" style="opacity: 1;"><rect id="v-1225" fill="#ffffff" rx="3" ry="3" stroke="#ffffff" stroke-width="20px" pointer-events="none" width="198.375" height="81.765625" transform="matrix(1,0,0,1,-99.2,-40.8)"></rect><text id="v-1224" font-size="32px" y="0.8em" xml:space="preserve" text-anchor="middle" pointer-events="none" fill="#707070" font-family="Open Sans" font-weight="normal" transform="matrix(1,0,0,1,0,-32.4)"><tspan id="v-1226"  dy="0em" x="0">writes source</tspan><tspan id="v-1227"  dy="1.2em" x="0">code in</tspan></text></g><g  id="v-1228" label-idx="1" cursor="move" transform="translate(748, 578.1)" style="opacity: 1;"><rect id="v-1230" fill="#ffffff" rx="3" ry="3" pointer-events="none" width="0" height="0" transform="matrix(1,0,0,1,0,0)"></rect><text id="v-1229" font-size="27px" y="0.8em" display="none" xml:space="preserve" text-anchor="middle" pointer-events="none" fill="#707070" font-family="Open Sans" font-weight="normal" transform="matrix(1,0,0,1,0,0)"><tspan id="v-1231"  dy="0em" x="0" style="fill-opacity: 0; stroke-opacity: 0;">-</tspan></text></g><g  id="v-1232" label-idx="2" cursor="move" transform="translate(748, 610.1)" style="opacity: 1;"><rect id="v-1234" fill="#ffffff" rx="3" ry="3" pointer-events="none"  display="none" width="0" height="0" transform="matrix(1,0,0,1,0,0)"></rect><text id="v-1233" font-size="27px" y="0.8em" display="none" xml:space="preserve" text-anchor="middle" pointer-events="none" fill="#707070" font-family="Open Sans" font-weight="normal"  transform="matrix(1,0,0,1,0,0)"><tspan id="v-1235"  dy="0em" x="0" style="fill-opacity: 0; stroke-opacity: 0;">-</tspan></text></g></g><g  display="none"></g><g  id="v-1240" display="none"><g  id="v-1220"><path  end="source" d="M 26 0 L 0 13 L 26 26 z"></path></g><g  id="v-1221"><path  end="target" d="M 26 0 L 0 13 L 26 26 z"></path></g></g><g  id="v-1239" display="none"><g  id="v-1219" transform="translate(643.8530883789062, 564.448486328125) "><g  event="remove"><circle r="11"></circle><path transform="scale(.8) translate(-16, -16)" d="M24.778,21.419 19.276,15.917 24.777,10.415 21.949,7.585 16.447,13.087 10.945,7.585 8.117,10.415 13.618,15.917 8.116,21.419 10.946,24.248 16.447,18.746 21.948,24.248z"></path><title>Remove link.</title></g><g  event="link:options"><circle r="11" transform="translate(25)"></circle><path fill="white" transform="scale(.55) translate(29, -16)" d="M31.229,17.736c0.064-0.571,0.104-1.148,0.104-1.736s-0.04-1.166-0.104-1.737l-4.377-1.557c-0.218-0.716-0.504-1.401-0.851-2.05l1.993-4.192c-0.725-0.91-1.549-1.734-2.458-2.459l-4.193,1.994c-0.647-0.347-1.334-0.632-2.049-0.849l-1.558-4.378C17.165,0.708,16.588,0.667,16,0.667s-1.166,0.041-1.737,0.105L12.707,5.15c-0.716,0.217-1.401,0.502-2.05,0.849L6.464,4.005C5.554,4.73,4.73,5.554,4.005,6.464l1.994,4.192c-0.347,0.648-0.632,1.334-0.849,2.05l-4.378,1.557C0.708,14.834,0.667,15.412,0.667,16s0.041,1.165,0.105,1.736l4.378,1.558c0.217,0.715,0.502,1.401,0.849,2.049l-1.994,4.193c0.725,0.909,1.549,1.733,2.459,2.458l4.192-1.993c0.648,0.347,1.334,0.633,2.05,0.851l1.557,4.377c0.571,0.064,1.148,0.104,1.737,0.104c0.588,0,1.165-0.04,1.736-0.104l1.558-4.377c0.715-0.218,1.399-0.504,2.049-0.851l4.193,1.993c0.909-0.725,1.733-1.549,2.458-2.458l-1.993-4.193c0.347-0.647,0.633-1.334,0.851-2.049L31.229,17.736zM16,20.871c-2.69,0-4.872-2.182-4.872-4.871c0-2.69,2.182-4.872,4.872-4.872c2.689,0,4.871,2.182,4.871,4.872C20.871,18.689,18.689,20.871,16,20.871z"></path><title>Link options.</title></g></g></g></g></g><defs id="v-4"></defs></svg>