<?xml version='1.0' encoding='UTF-8'?>
<!DOCTYPE svg PUBLIC "-//W3C//DTD SVG 1.0//EN" "http://www.w3.org/TR/2001/REC-SVG-20010904/DTD/svg10.dtd">
<svg viewBox="0 0 576 200" xmlns="http://www.w3.org/2000/svg" xmlns:inkspace="http://www.inkscape.org/namespaces/inkscape" xmlns:xlink="http://www.w3.org/1999/xlink" width="576px" height="200px">
  <defs id="defs_block">
    <filter height="1.504" id="filter_blur" inkspace:collect="always" width="1.1575" x="-0.07875" y="-0.252">
      <feGaussianBlur id="feGaussianBlur3780" inkspace:collect="always" stdDeviation="4.2" />
    </filter>
  </defs>
  <title>blockdiag</title>
  <desc>blockdiag {
    default_fontsize = 24;
    "Text Editor 1" [width = 192 ];
    "Text Editor 2" [width = 192 ];
    "Frege IDE"     [width = 192 ];
    "Text Editor 1" -&gt; "Frege IDE";
    "Text Editor 2" -&gt; "Frege IDE";
}</desc>
  <rect fill="rgb(0,0,0)" height="40" stroke="rgb(0,0,0)" style="filter:url(#filter_blur);opacity:0.7;fill-opacity:1" width="192" x="67" y="46" />
  <rect fill="rgb(0,0,0)" height="40" stroke="rgb(0,0,0)" style="filter:url(#filter_blur);opacity:0.7;fill-opacity:1" width="192" x="67" y="126" />
  <rect fill="rgb(0,0,0)" height="40" stroke="rgb(0,0,0)" style="filter:url(#filter_blur);opacity:0.7;fill-opacity:1" width="192" x="323" y="46" />
  <rect fill="rgb(255,255,255)" height="40" stroke="rgb(0,0,0)" width="192" x="64" y="40" />
  <text fill="rgb(0,0,0)" font-family="sans-serif" font-size="24" font-style="normal" font-weight="normal" text-anchor="middle" textLength="172" x="160.0" y="72">Text Editor 1</text>
  <rect fill="rgb(255,255,255)" height="40" stroke="rgb(0,0,0)" width="192" x="64" y="120" />
  <text fill="rgb(0,0,0)" font-family="sans-serif" font-size="24" font-style="normal" font-weight="normal" text-anchor="middle" textLength="172" x="160.0" y="152">Text Editor 2</text>
  <rect fill="rgb(255,255,255)" height="40" stroke="rgb(0,0,0)" width="192" x="320" y="40" />
  <text fill="rgb(0,0,0)" font-family="sans-serif" font-size="24" font-style="normal" font-weight="normal" text-anchor="middle" textLength="119" x="416.5" y="72">Frege IDE</text>
  <path d="M 256 60 L 312 60" fill="none" stroke="rgb(0,0,0)" />
  <polygon fill="rgb(0,0,0)" points="319,60 312,56 312,64 319,60" stroke="rgb(0,0,0)" />
  <path d="M 256 140 L 304 140" fill="none" stroke="rgb(0,0,0)" />
  <path d="M 304 140 L 304 60" fill="none" stroke="rgb(0,0,0)" />
  <path d="M 304 60 L 312 60" fill="none" stroke="rgb(0,0,0)" />
  <polygon fill="rgb(0,0,0)" points="319,60 312,56 312,64 319,60" stroke="rgb(0,0,0)" />
</svg>