<?xml version='1.0' encoding='UTF-8'?>
<!DOCTYPE svg PUBLIC "-//W3C//DTD SVG 1.0//EN" "http://www.w3.org/TR/2001/REC-SVG-20010904/DTD/svg10.dtd">
<svg viewBox="0 0 1805 1034" xmlns="http://www.w3.org/2000/svg" xmlns:inkspace="http://www.inkscape.org/namespaces/inkscape" xmlns:xlink="http://www.w3.org/1999/xlink" width="1805px" height="1034px">
  <defs id="defs_block">
    <filter height="1.504" id="filter_blur" inkspace:collect="always" width="1.1575" x="-0.07875" y="-0.252">
      <feGaussianBlur id="feGaussianBlur3780" inkspace:collect="always" stdDeviation="4.2" />
    </filter>
  </defs>
  <title>blockdiag</title>
  <desc>seqdiag {
    edge_length = 280;
    default_fontsize = 24;
    "CompileService.java"    [ width = 290  ];
    "CompileExecutorLSP.fr"  [ width = 300  ];
    "CompileMakeMode.fr"     [ width = 280  ];
    "Frege Compiler"          [ width = 192  ];
    "CompileService.java" -&gt;&gt; "CompileService.java" [ leftnote = "compileAndUpdateGlobals\n(uri, projectGlobal)" ];
    "CompileService.java" -&gt;&gt; "CompileExecutorLSP.fr" [ label = "compileWithMakeMode\n(uri, projectGlobal)" ];
    "CompileExecutorLSP.fr" -&gt;&gt; "CompileMakeMode.fr"  [ label = "compileMakeLSP\n:: String\n-&gt; Global\n -&gt; IOMutable (ArrayList Global)" ];
    "CompileMakeMode.fr"    -&gt;&gt; "Frege Compiler"      [ label = "compileMake\n:: String\n-&gt; Global\n -&gt; IO [Global]" ];
    "CompileMakeMode.fr"    &lt;&lt;- "Frege Compiler"      [ label = "IO [Global]" ];
    "CompileExecutorLSP.fr" &lt;&lt;- "CompileMakeMode.fr" [ label = "IOMutable (ArrayList Global)" ];
    "CompileService.java"   &lt;&lt;- "CompileExecutorLSP.fr" [ label = "List&lt;TGlobal&gt;" ];
    "CompileService.java"    -&gt; "CompileService.java" [ label = "update\nuriGlobals" ];
}</desc>
  <rect fill="rgb(0,0,0)" height="859" style="filter:url(#filter_blur);opacity:0.7;fill-opacity:1" width="8" x="367" y="153" />
  <rect fill="rgb(0,0,0)" height="572" style="filter:url(#filter_blur);opacity:0.7;fill-opacity:1" width="8" x="814" y="274" />
  <rect fill="rgb(0,0,0)" height="312" style="filter:url(#filter_blur);opacity:0.7;fill-opacity:1" width="8" x="1256" y="456" />
  <rect fill="rgb(0,0,0)" height="78" style="filter:url(#filter_blur);opacity:0.7;fill-opacity:1" width="8" x="1644" y="612" />
  <polygon fill="rgb(0,0,0)" points="27,126 347,126 355,134 355,180 27,180 27,126" stroke="rgb(0,0,0)" style="filter:url(#filter_blur);opacity:0.7;fill-opacity:1" />
  <rect fill="rgb(0,0,0)" height="40" stroke="rgb(0,0,0)" style="filter:url(#filter_blur);opacity:0.7;fill-opacity:1" width="290" x="226" y="46" />
  <rect fill="rgb(0,0,0)" height="40" stroke="rgb(0,0,0)" style="filter:url(#filter_blur);opacity:0.7;fill-opacity:1" width="300" x="668" y="46" />
  <rect fill="rgb(0,0,0)" height="40" stroke="rgb(0,0,0)" style="filter:url(#filter_blur);opacity:0.7;fill-opacity:1" width="280" x="1120" y="46" />
  <rect fill="rgb(0,0,0)" height="40" stroke="rgb(0,0,0)" style="filter:url(#filter_blur);opacity:0.7;fill-opacity:1" width="192" x="1552" y="46" />
  <path d="M 368 80 L 368 1022" fill="none" stroke="rgb(0,0,0)" stroke-dasharray="8 4" />
  <rect fill="moccasin" height="859" stroke="rgb(0,0,0)" width="8" x="364" y="147" />
  <path d="M 815 80 L 815 1022" fill="none" stroke="rgb(0,0,0)" stroke-dasharray="8 4" />
  <rect fill="moccasin" height="572" stroke="rgb(0,0,0)" width="8" x="811" y="268" />
  <path d="M 1257 80 L 1257 1022" fill="none" stroke="rgb(0,0,0)" stroke-dasharray="8 4" />
  <rect fill="moccasin" height="312" stroke="rgb(0,0,0)" width="8" x="1253" y="450" />
  <path d="M 1645 80 L 1645 1022" fill="none" stroke="rgb(0,0,0)" stroke-dasharray="8 4" />
  <rect fill="moccasin" height="78" stroke="rgb(0,0,0)" width="8" x="1641" y="606" />
  <rect fill="rgb(255,255,255)" height="40" stroke="rgb(0,0,0)" width="290" x="223" y="40" />
  <text fill="rgb(0,0,0)" font-family="sans-serif" font-size="24" font-style="normal" font-weight="normal" text-anchor="middle" textLength="251" x="368.5" y="72">CompileService.java</text>
  <rect fill="rgb(255,255,255)" height="40" stroke="rgb(0,0,0)" width="300" x="665" y="40" />
  <text fill="rgb(0,0,0)" font-family="sans-serif" font-size="24" font-style="normal" font-weight="normal" text-anchor="middle" textLength="278" x="815.0" y="72">CompileExecutorLSP.fr</text>
  <rect fill="rgb(255,255,255)" height="40" stroke="rgb(0,0,0)" width="280" x="1117" y="40" />
  <text fill="rgb(0,0,0)" font-family="sans-serif" font-size="24" font-style="normal" font-weight="normal" text-anchor="middle" textLength="238" x="1257.0" y="72">CompileMakeMode.fr</text>
  <rect fill="rgb(255,255,255)" height="40" stroke="rgb(0,0,0)" width="192" x="1549" y="40" />
  <text fill="rgb(0,0,0)" font-family="sans-serif" font-size="24" font-style="normal" font-weight="normal" text-anchor="middle" textLength="185" x="1645.5" y="72">Frege Compiler</text>
  <path d="M 376 147 L 624 147" fill="none" stroke="rgb(0,0,0)" />
  <path d="M 624 147 L 624 163" fill="none" stroke="rgb(0,0,0)" />
  <path d="M 624 163 L 376 163" fill="none" stroke="rgb(0,0,0)" />
  <path d="M 384 159 L 376 163" fill="none" stroke="rgb(0,0,0)" />
  <path d="M 376 163 L 384 167" fill="none" stroke="rgb(0,0,0)" />
  <polygon fill="rgb(255,182,193)" points="24,120 344,120 352,128 352,174 24,174 24,120" stroke="rgb(0,0,0)" />
  <path d="M 344 120 L 344 128" fill="none" stroke="rgb(0,0,0)" />
  <path d="M 344 128 L 352 128" fill="none" stroke="rgb(0,0,0)" />
  <text fill="rgb(0,0,0)" font-family="sans-serif" font-size="24" font-style="normal" font-weight="normal" text-anchor="middle" textLength="304" x="184.0" y="146">compileAndUpdateGlobals</text>
  <text fill="rgb(0,0,0)" font-family="sans-serif" font-size="24" font-style="normal" font-weight="normal" text-anchor="middle" textLength="264" x="164.0" y="172">(uri, projectGlobal)</text>
  <path d="M 376 268 L 807 268" fill="none" stroke="rgb(0,0,0)" />
  <path d="M 799 264 L 807 268" fill="none" stroke="rgb(0,0,0)" />
  <path d="M 807 268 L 799 272" fill="none" stroke="rgb(0,0,0)" />
  <path d="M 823 450 L 1249 450" fill="none" stroke="rgb(0,0,0)" />
  <path d="M 1241 446 L 1249 450" fill="none" stroke="rgb(0,0,0)" />
  <path d="M 1249 450 L 1241 454" fill="none" stroke="rgb(0,0,0)" />
  <path d="M 1265 606 L 1637 606" fill="none" stroke="rgb(0,0,0)" />
  <path d="M 1629 602 L 1637 606" fill="none" stroke="rgb(0,0,0)" />
  <path d="M 1637 606 L 1629 610" fill="none" stroke="rgb(0,0,0)" />
  <path d="M 1265 684 L 1637 684" fill="none" stroke="rgb(0,0,0)" />
  <path d="M 1273 680 L 1265 684" fill="none" stroke="rgb(0,0,0)" />
  <path d="M 1265 684 L 1273 688" fill="none" stroke="rgb(0,0,0)" />
  <path d="M 823 762 L 1249 762" fill="none" stroke="rgb(0,0,0)" />
  <path d="M 831 758 L 823 762" fill="none" stroke="rgb(0,0,0)" />
  <path d="M 823 762 L 831 766" fill="none" stroke="rgb(0,0,0)" />
  <path d="M 376 840 L 807 840" fill="none" stroke="rgb(0,0,0)" />
  <path d="M 384 836 L 376 840" fill="none" stroke="rgb(0,0,0)" />
  <path d="M 376 840 L 384 844" fill="none" stroke="rgb(0,0,0)" />
  <path d="M 376 944 L 624 944" fill="none" stroke="rgb(0,0,0)" />
  <path d="M 624 944 L 624 960" fill="none" stroke="rgb(0,0,0)" />
  <path d="M 624 960 L 376 960" fill="none" stroke="rgb(0,0,0)" />
  <polygon fill="rgb(0,0,0)" points="384,956 376,960 384,964" stroke="rgb(0,0,0)" />
  <text fill="rgb(0,0,0)" font-family="sans-serif" font-size="24" font-style="normal" font-weight="normal" text-anchor="middle" textLength="251" x="509.5" y="238">compileWithMakeMode</text>
  <text fill="rgb(0,0,0)" font-family="sans-serif" font-size="24" font-style="normal" font-weight="normal" text-anchor="middle" textLength="264" x="516.0" y="264">(uri, projectGlobal)</text>
  <text fill="rgb(0,0,0)" font-family="sans-serif" font-size="24" font-style="normal" font-weight="normal" text-anchor="middle" textLength="185" x="923.5" y="355">compileMakeLSP</text>
  <text fill="rgb(0,0,0)" font-family="sans-serif" font-size="24" font-style="normal" font-weight="normal" text-anchor="middle" textLength="119" x="890.5" y="381">:: String</text>
  <text fill="rgb(0,0,0)" font-family="sans-serif" font-size="24" font-style="normal" font-weight="normal" text-anchor="middle" textLength="119" x="890.5" y="407">-&gt; Global</text>
  <text fill="rgb(0,0,0)" font-family="sans-serif" font-size="24" font-style="normal" font-weight="normal" text-anchor="middle" textLength="410" x="1036.0" y="433">-&gt; IOMutable (ArrayList Global)</text>
  <text fill="rgb(0,0,0)" font-family="sans-serif" font-size="24" font-style="normal" font-weight="normal" text-anchor="middle" textLength="146" x="1346.0" y="524">compileMake</text>
  <text fill="rgb(0,0,0)" font-family="sans-serif" font-size="24" font-style="normal" font-weight="normal" text-anchor="middle" textLength="119" x="1332.5" y="550">:: String</text>
  <text fill="rgb(0,0,0)" font-family="sans-serif" font-size="24" font-style="normal" font-weight="normal" text-anchor="middle" textLength="119" x="1332.5" y="576">-&gt; Global</text>
  <text fill="rgb(0,0,0)" font-family="sans-serif" font-size="24" font-style="normal" font-weight="normal" text-anchor="middle" textLength="185" x="1365.5" y="602">-&gt; IO [Global]</text>
  <text fill="rgb(0,0,0)" font-family="sans-serif" font-size="24" font-style="normal" font-weight="normal" text-anchor="middle" textLength="146" x="1560.0" y="680">IO [Global]</text>
  <text fill="rgb(0,0,0)" font-family="sans-serif" font-size="24" font-style="normal" font-weight="normal" text-anchor="middle" textLength="370" x="1060.0" y="758">IOMutable (ArrayList Global)</text>
  <text fill="rgb(0,0,0)" font-family="sans-serif" font-size="24" font-style="normal" font-weight="normal" text-anchor="middle" textLength="172" x="717.0" y="836">List&lt;TGlobal&gt;</text>
  <text fill="rgb(0,0,0)" font-family="sans-serif" font-size="24" font-style="normal" font-weight="normal" text-anchor="middle" textLength="80" x="420.0" y="914">update</text>
  <text fill="rgb(0,0,0)" font-family="sans-serif" font-size="24" font-style="normal" font-weight="normal" text-anchor="middle" textLength="132" x="446.0" y="940">uriGlobals</text>
</svg>