<?xml version='1.0' encoding='UTF-8'?>
<!DOCTYPE svg PUBLIC "-//W3C//DTD SVG 1.0//EN" "http://www.w3.org/TR/2001/REC-SVG-20010904/DTD/svg10.dtd">
<svg viewBox="0 0 1082 508" xmlns="http://www.w3.org/2000/svg" xmlns:inkspace="http://www.inkscape.org/namespaces/inkscape" xmlns:xlink="http://www.w3.org/1999/xlink" width="1082px" height="508px">
  <defs id="defs_block">
    <filter height="1.504" id="filter_blur" inkspace:collect="always" width="1.1575" x="-0.07875" y="-0.252">
      <feGaussianBlur id="feGaussianBlur3780" inkspace:collect="always" stdDeviation="4.2" />
    </filter>
  </defs>
  <title>blockdiag</title>
  <desc>seqdiag {
    edge_length = 350;
    default_fontsize = 24;
    "Frege Language Extension" [ width = 330 ];
    "LSP"                      [ width = 60  ];
    "Hover"                    [ width = 120 ];
    "Frege Language Extension" -&gt; "LSP"    [ label = "hover request" ];
    "LSP"                      -&gt; "Hover"  [ label = "hover\n(hoverParams, global)" ];
    "LSP"                      &lt;- "Hover"  [ label = "Hover" ];
    "Frege Language Extension" &lt;- "LSP"    [ label = "Hover" ];
}</desc>
  <rect fill="rgb(0,0,0)" height="332" style="filter:url(#filter_blur);opacity:0.7;fill-opacity:1" width="8" x="228" y="154" />
  <rect fill="rgb(0,0,0)" height="286" style="filter:url(#filter_blur);opacity:0.7;fill-opacity:1" width="8" x="645" y="154" />
  <rect fill="rgb(0,0,0)" height="78" style="filter:url(#filter_blur);opacity:0.7;fill-opacity:1" width="8" x="957" y="284" />
  <rect fill="rgb(0,0,0)" height="40" stroke="rgb(0,0,0)" style="filter:url(#filter_blur);opacity:0.7;fill-opacity:1" width="330" x="67" y="46" />
  <rect fill="rgb(0,0,0)" height="40" stroke="rgb(0,0,0)" style="filter:url(#filter_blur);opacity:0.7;fill-opacity:1" width="60" x="619" y="46" />
  <rect fill="rgb(0,0,0)" height="40" stroke="rgb(0,0,0)" style="filter:url(#filter_blur);opacity:0.7;fill-opacity:1" width="120" x="901" y="46" />
  <path d="M 229 80 L 229 496" fill="none" stroke="rgb(0,0,0)" stroke-dasharray="8 4" />
  <rect fill="moccasin" height="332" stroke="rgb(0,0,0)" width="8" x="225" y="148" />
  <path d="M 646 80 L 646 496" fill="none" stroke="rgb(0,0,0)" stroke-dasharray="8 4" />
  <rect fill="moccasin" height="286" stroke="rgb(0,0,0)" width="8" x="642" y="148" />
  <path d="M 958 80 L 958 496" fill="none" stroke="rgb(0,0,0)" stroke-dasharray="8 4" />
  <rect fill="moccasin" height="78" stroke="rgb(0,0,0)" width="8" x="954" y="278" />
  <rect fill="rgb(255,255,255)" height="40" stroke="rgb(0,0,0)" width="330" x="64" y="40" />
  <text fill="rgb(0,0,0)" font-family="sans-serif" font-size="24" font-style="normal" font-weight="normal" text-anchor="middle" textLength="317" x="229.5" y="72">Frege Language Extension</text>
  <rect fill="rgb(255,255,255)" height="40" stroke="rgb(0,0,0)" width="60" x="616" y="40" />
  <text fill="rgb(0,0,0)" font-family="sans-serif" font-size="24" font-style="normal" font-weight="normal" text-anchor="middle" textLength="40" x="646.0" y="72">LSP</text>
  <rect fill="rgb(255,255,255)" height="40" stroke="rgb(0,0,0)" width="120" x="898" y="40" />
  <text fill="rgb(0,0,0)" font-family="sans-serif" font-size="24" font-style="normal" font-weight="normal" text-anchor="middle" textLength="66" x="958.0" y="72">Hover</text>
  <path d="M 237 148 L 638 148" fill="none" stroke="rgb(0,0,0)" />
  <polygon fill="rgb(0,0,0)" points="630,144 638,148 630,152" stroke="rgb(0,0,0)" />
  <path d="M 654 278 L 950 278" fill="none" stroke="rgb(0,0,0)" />
  <polygon fill="rgb(0,0,0)" points="942,274 950,278 942,282" stroke="rgb(0,0,0)" />
  <path d="M 654 356 L 950 356" fill="none" stroke="rgb(0,0,0)" />
  <polygon fill="rgb(0,0,0)" points="662,352 654,356 662,360" stroke="rgb(0,0,0)" />
  <path d="M 237 434 L 638 434" fill="none" stroke="rgb(0,0,0)" />
  <polygon fill="rgb(0,0,0)" points="245,430 237,434 245,438" stroke="rgb(0,0,0)" />
  <text fill="rgb(0,0,0)" font-family="sans-serif" font-size="24" font-style="normal" font-weight="normal" text-anchor="middle" textLength="172" x="331.0" y="144">hover request</text>
  <text fill="rgb(0,0,0)" font-family="sans-serif" font-size="24" font-style="normal" font-weight="normal" text-anchor="middle" textLength="66" x="695.0" y="235">hover</text>
  <text fill="rgb(0,0,0)" font-family="sans-serif" font-size="24" font-style="normal" font-weight="normal" text-anchor="middle" textLength="278" x="801.0" y="261">(hoverParams, global)</text>
  <text fill="rgb(0,0,0)" font-family="sans-serif" font-size="24" font-style="normal" font-weight="normal" text-anchor="middle" textLength="66" x="913.0" y="352">Hover</text>
  <text fill="rgb(0,0,0)" font-family="sans-serif" font-size="24" font-style="normal" font-weight="normal" text-anchor="middle" textLength="66" x="601.0" y="430">Hover</text>
</svg>